<svg xmlns="http://www.w3.org/2000/svg" xmlns:xlink="http://www.w3.org/1999/xlink" width="500" zoomAndPan="magnify" viewBox="0 0 375 374.999991" height="500" preserveAspectRatio="xMidYMid meet" version="1.0"><defs><g/><clipPath id="91837503b5"><path d="M 25.664062 150 L 303 150 L 303 374 L 25.664062 374 Z M 25.664062 150 " clip-rule="nonzero"/></clipPath><clipPath id="ed7456ddc2"><path d="M 25.664062 150 L 295 150 L 295 312 L 25.664062 312 Z M 25.664062 150 " clip-rule="nonzero"/></clipPath><clipPath id="d116518bb4"><path d="M 147 79 L 349.664062 79 L 349.664062 242 L 147 242 Z M 147 79 " clip-rule="nonzero"/></clipPath><clipPath id="a4437a898b"><path d="M 185 301 L 298 301 L 298 374.792969 L 185 374.792969 Z M 185 301 " clip-rule="nonzero"/></clipPath></defs><rect x="-37.5" width="450" fill="#ffffff" y="-37.499999" height="449.999989" fill-opacity="1"/><rect x="-37.5" width="450" fill="#ffffff" y="-37.499999" height="449.999989" fill-opacity="1"/><g clip-path="url(#91837503b5)"><path fill="#fc9f6a" d="M 298.726562 322.191406 C 301.96875 304.378906 303.644531 286.03125 300.535156 268.195312 C 297.425781 250.359375 289.144531 232.96875 274.429688 222.351562 C 258.636719 225.476562 242.84375 228.601562 220.410156 233.863281 C 224.800781 249.796875 217.164062 266.464844 208.273438 280.40625 C 199.664062 293.910156 189.414062 307.183594 186.511719 322.847656 C 183.160156 316.734375 180.292969 310.300781 177.277344 304.011719 C 163.628906 275.507812 146.179688 248.832031 125.609375 224.828125 C 110.550781 207.25 93.816406 191.105469 75.667969 176.722656 C 60.8125 164.945312 44.367188 154.058594 25.660156 150.917969 C 41.671875 181.09375 51.203125 212.316406 54.046875 244.148438 C 54.777344 252.339844 55.082031 260.625 55.730469 268.835938 C 56.46875 278.152344 57.648438 287.382812 60.402344 296.292969 C 66.507812 316.054688 79.988281 332.828125 95.460938 346.574219 C 109.441406 358.992188 125.921875 369.601562 144.445312 372.265625 C 162.007812 374.789062 179.894531 369.878906 195.5625 361.335938 C 198.480469 365.492188 201.964844 369.25 205.90625 372.4375 C 206.496094 372.914062 207.09375 373.375 207.699219 373.824219 C 207.699219 373.824219 218.898438 373.824219 233.21875 373.796875 C 249.496094 373.765625 269.808594 373.695312 282.277344 373.550781 C 289.269531 373.464844 293.796875 373.359375 293.765625 373.222656 C 295.765625 373.195312 297.476562 371.464844 297.882812 369.511719 C 298.292969 367.558594 297.597656 365.5 296.433594 363.878906 C 295.273438 362.253906 293.683594 360.992188 291.976562 358.792969 C 292.074219 358.679688 292.171875 358.5625 292.265625 358.449219 C 300.722656 348.316406 303.191406 333.539062 298.726562 322.191406 Z M 298.726562 322.191406 " fill-opacity="1" fill-rule="nonzero"/></g><path fill="#e0d5b8" d="M 274.121094 296.183594 C 271.773438 315.390625 269.964844 334.664062 268.703125 353.972656 C 265.550781 358.148438 259.046875 361.308594 252.703125 360.820312 C 251.695312 340.992188 250.914062 320.4375 251.359375 300.316406 C 259.382812 297.398438 267.769531 295.472656 274.121094 296.183594 Z M 274.121094 296.183594 " fill-opacity="1" fill-rule="nonzero"/><g clip-path="url(#ed7456ddc2)"><path fill="#f6f6d4" d="M 294.050781 261.464844 C 293.359375 258.429688 292.664062 255.398438 291.972656 252.363281 C 293.015625 275.765625 280.777344 299.3125 261.011719 311.933594 C 248.835938 299.648438 239.722656 284.253906 234.953125 267.597656 C 234.527344 269.988281 234.578125 272.460938 235.101562 274.832031 C 230.125 265.875 227.109375 255.847656 226.421875 245.308594 C 226.160156 241.304688 226.230469 237.226562 226.660156 233.105469 C 247.675781 230.65625 268.386719 225.605469 286.257812 217.46875 C 289.550781 223.742188 291.902344 230.492188 293.273438 237.441406 C 294.832031 245.339844 295.113281 253.484375 294.050781 261.464844 Z M 107.683594 222.445312 C 113.699219 222.890625 119.6875 223.6875 125.609375 224.828125 C 110.550781 207.25 93.816406 191.105469 75.667969 176.722656 C 60.8125 164.945312 44.367188 154.0625 25.660156 150.921875 C 41.671875 181.097656 51.203125 212.316406 54.046875 244.148438 C 54.777344 252.339844 55.082031 260.625 55.730469 268.839844 C 61.652344 274.542969 68.011719 280.191406 74.660156 285.488281 C 74.683594 273.78125 74.710938 262.074219 73.859375 250.058594 C 79.476562 258.46875 86.410156 266.003906 94.328125 272.308594 C 93.742188 263.09375 93.15625 253.878906 91.039062 242.996094 C 100.980469 243.976562 110.625 247.832031 118.496094 253.972656 C 116.945312 243.34375 113.535156 232.988281 107.683594 222.445312 Z M 107.683594 222.445312 " fill-opacity="1" fill-rule="nonzero"/></g><path fill="#d1d1b6" d="M 293.273438 237.441406 C 287.417969 240.957031 280.285156 241.992188 273.457031 243.019531 C 263.917969 244.453125 254.382812 246.09375 244.746094 246.476562 C 238.625 246.722656 232.425781 246.441406 226.417969 245.308594 C 226.15625 241.304688 226.230469 237.230469 226.660156 233.105469 C 247.675781 230.65625 268.382812 225.605469 286.257812 217.46875 C 289.546875 223.742188 291.902344 230.496094 293.273438 237.441406 Z M 281.679688 257.347656 C 281.535156 255.855469 281.246094 254.371094 280.777344 252.945312 C 280.539062 252.265625 280.265625 251.601562 279.949219 250.953125 C 279.777344 250.671875 279.695312 250.28125 279.4375 250.078125 C 278.902344 249.644531 278.152344 250.300781 278.5 250.898438 C 279.027344 251.992188 279.1875 252.304688 279.535156 253.367188 C 279.847656 254.347656 280.054688 255.359375 280.214844 256.378906 C 280.367188 257.660156 280.40625 258.949219 280.425781 260.234375 C 280.453125 261.480469 280.472656 262.726562 280.449219 263.96875 C 280.429688 265.320312 280.375 266.667969 280.242188 268.011719 C 280.1875 268.539062 280.152344 268.820312 280.121094 269.019531 C 280.117188 269.046875 280.113281 269.085938 280.105469 269.125 C 280.085938 269.203125 280.074219 269.285156 280.09375 269.363281 C 280.097656 269.4375 280.121094 269.507812 280.160156 269.574219 C 280.394531 269.992188 281.070312 269.910156 281.1875 269.441406 C 281.34375 268.558594 281.449219 267.667969 281.53125 266.777344 C 281.789062 263.644531 281.839844 260.488281 281.679688 257.347656 Z M 269.554688 275.855469 C 269.34375 276.242188 268.714844 276.207031 268.570312 275.789062 C 268.488281 275.613281 268.527344 275.402344 268.503906 275.214844 C 268.480469 274.789062 268.449219 274.363281 268.417969 273.941406 C 268.289062 272.3125 268.121094 270.691406 267.945312 269.066406 C 267.582031 265.804688 267.515625 263.558594 266.03125 260.71875 C 265.683594 260.121094 266.433594 259.457031 266.972656 259.894531 C 267.121094 259.984375 267.175781 260.152344 267.253906 260.296875 C 267.410156 260.589844 267.550781 260.886719 267.6875 261.183594 C 268.101562 262.117188 268.417969 263.09375 268.652344 264.085938 C 268.9375 265.421875 269.050781 266.785156 269.183594 268.140625 C 269.320312 269.863281 269.449219 271.582031 269.546875 273.304688 C 269.578125 273.941406 269.609375 274.578125 269.625 275.210938 C 269.621094 275.425781 269.671875 275.660156 269.554688 275.855469 Z M 260.976562 285.566406 C 260.550781 285.792969 260.15625 285.507812 260.070312 285.070312 C 259.929688 284.648438 259.800781 284.21875 259.675781 283.792969 C 258.667969 280.273438 257.835938 276.671875 257.390625 273.035156 C 257.378906 272.480469 258.097656 272.1875 258.480469 272.585938 C 258.597656 272.703125 258.667969 272.867188 258.664062 273.035156 C 258.753906 273.742188 258.734375 273.585938 258.820312 274.152344 C 259.140625 276.035156 259.550781 277.902344 259.980469 279.761719 C 260.25 280.988281 260.53125 282.210938 260.839844 283.429688 C 260.941406 283.835938 261.050781 284.238281 261.164062 284.644531 C 261.296875 284.980469 261.328125 285.355469 260.976562 285.566406 Z M 249.484375 270.527344 C 249.257812 270.660156 248.933594 270.613281 248.78125 270.386719 C 248.730469 270.335938 248.699219 270.269531 248.679688 270.195312 C 248.769531 270.414062 248.699219 270.238281 248.652344 270.132812 C 248.5 269.761719 248.34375 269.386719 248.199219 269.007812 C 247.421875 267.019531 246.8125 264.960938 246.449219 262.855469 C 246.191406 261.449219 246.046875 260.019531 246.15625 258.59375 C 246.152344 257.863281 247.195312 257.652344 247.460938 258.332031 C 247.5625 258.519531 247.5 258.742188 247.496094 258.945312 C 247.480469 259.269531 247.480469 259.59375 247.480469 259.917969 C 247.535156 261.65625 247.746094 262.597656 248.085938 264.421875 C 248.339844 265.617188 248.660156 266.796875 249.035156 267.957031 C 249.1875 268.421875 249.347656 268.886719 249.515625 269.347656 C 249.664062 269.75 249.972656 270.222656 249.484375 270.527344 Z M 274.359375 287.699219 C 273.625 290.007812 272.339844 292.890625 271.617188 294.671875 C 271.507812 294.902344 271.46875 295.191406 271.230469 295.328125 C 270.917969 295.523438 270.445312 295.304688 270.421875 294.933594 C 270.382812 294.671875 270.570312 294.433594 270.640625 294.1875 C 270.777344 293.84375 270.902344 293.496094 271.035156 293.152344 C 271.746094 291.226562 272.476562 289.308594 273.097656 287.351562 C 273.351562 286.527344 274.566406 286.867188 274.359375 287.699219 Z M 257.511719 295.300781 C 257.515625 295.597656 257.253906 295.863281 256.953125 295.859375 C 256.796875 295.863281 256.648438 295.785156 256.539062 295.675781 C 256.355469 295.53125 256.175781 295.386719 255.996094 295.238281 C 254.265625 293.773438 252.589844 292.21875 251.191406 290.433594 C 250.898438 289.957031 251.378906 289.34375 251.90625 289.5 C 252.128906 289.550781 252.261719 289.742188 252.378906 289.921875 C 252.53125 290.117188 252.609375 290.21875 252.976562 290.632812 C 254.066406 291.871094 255.222656 293.042969 256.453125 294.136719 C 256.660156 294.320312 256.867188 294.5 257.078125 294.679688 C 257.28125 294.847656 257.519531 295.011719 257.511719 295.300781 Z M 257.511719 295.300781 " fill-opacity="1" fill-rule="nonzero"/><path fill="#fc9f6a" d="M 260.855469 97.152344 C 269.109375 80.253906 282.859375 64.515625 298.480469 53.210938 C 303.894531 49.292969 311.558594 51.535156 314.050781 57.734375 C 318.285156 68.273438 319.152344 80.832031 319.1875 91.933594 C 319.234375 107.125 315.757812 122.085938 312.113281 136.832031 C 298.3125 119.996094 280.378906 107.011719 260.855469 97.152344 Z M 190.613281 114.175781 C 176.542969 101.683594 157.828125 92.347656 139.074219 87.828125 C 132.570312 86.261719 126.339844 91.242188 126.398438 97.921875 C 126.496094 109.277344 130.480469 121.222656 134.679688 131.503906 C 140.421875 145.570312 149.339844 158.085938 158.328125 170.339844 C 164.675781 149.53125 176.316406 130.707031 190.613281 114.175781 Z M 190.613281 114.175781 " fill-opacity="1" fill-rule="nonzero"/><path fill="#f6f6d4" d="M 268.609375 100.539062 C 277.648438 84.628906 290.675781 71 307.195312 60.5 C 315.722656 83.246094 315.414062 109.164062 306.34375 131.699219 C 294.695312 119.617188 281.632812 108.902344 268.609375 100.539062 Z M 191.710938 126.8125 C 175.164062 112.25 155.441406 101.300781 134.324219 94.945312 C 132.160156 107.964844 135.613281 120.964844 141.597656 132.300781 C 147.582031 143.636719 155.992188 153.5 165.324219 163.136719 C 176.585938 152.328125 186.433594 140.054688 191.710938 126.8125 Z M 191.710938 126.8125 " fill-opacity="1" fill-rule="nonzero"/><g clip-path="url(#d116518bb4)"><path fill="#fc9f6a" d="M 349.664062 174.835938 C 347.925781 176.871094 346.167969 178.902344 344.394531 180.921875 C 325.980469 201.882812 305.503906 221.714844 279.847656 232.386719 C 259.492188 240.855469 236.832031 243.015625 214.90625 240.667969 C 197.226562 238.773438 179.96875 234.039062 161.03125 227.707031 C 156.476562 226.183594 151.828125 224.570312 147.050781 222.878906 C 152.363281 219.25 155.261719 212.90625 156.375 206.574219 C 157.484375 200.238281 157.0625 193.753906 157.125 187.324219 C 157.296875 170.203125 161.054688 152.992188 169.109375 137.875 C 177.160156 122.753906 189.625 109.820312 205.488281 102.828125 C 208.171875 93.542969 214.386719 85.320312 222.59375 80.195312 C 220.277344 86.835938 217.964844 93.476562 216.164062 100.09375 C 221.105469 90.433594 230.144531 82.953125 239.753906 79.992188 C 237.132812 85.199219 234.890625 90.59375 233.429688 95.765625 C 239.410156 86.636719 249.722656 80.476562 260.609375 79.53125 C 257.480469 83.769531 254.03125 87.769531 250.128906 91.652344 C 264.429688 91.390625 278.632812 96.292969 290.277344 104.589844 C 301.921875 112.886719 311.054688 124.457031 317.277344 137.316406 C 320.351562 143.675781 322.765625 150.394531 326.632812 156.300781 C 330.503906 162.210938 336.1875 167.394531 343.386719 168.792969 C 342.710938 169.976562 341.785156 171.011719 340.6875 171.816406 C 343.230469 173.507812 346.207031 174.554688 349.664062 174.835938 Z M 349.664062 174.835938 " fill-opacity="1" fill-rule="nonzero"/></g><path fill="#f6f6d4" d="M 344.394531 180.921875 C 325.980469 201.882812 305.503906 221.714844 279.847656 232.386719 C 259.492188 240.855469 236.832031 243.015625 214.90625 240.667969 C 197.226562 238.773438 179.96875 234.039062 161.03125 227.707031 C 172.503906 215.109375 188.492188 206.792969 205.089844 202.414062 C 224.453125 197.3125 244.761719 197.105469 263.554688 199.171875 C 284.792969 179.558594 316.78125 172.582031 344.394531 180.921875 Z M 344.394531 180.921875 " fill-opacity="1" fill-rule="nonzero"/><path fill="#230002" d="M 252.066406 338.707031 C 253 349.574219 253.21875 361.164062 253.433594 372.75 C 247.660156 373.425781 241.976562 373.777344 236.300781 373.652344 C 235.042969 373.597656 233.570312 373.515625 232.667969 372.554688 C 232.625 372.507812 232.585938 372.460938 232.546875 372.410156 C 232.777344 372.871094 233.003906 373.332031 233.222656 373.796875 C 218.902344 373.824219 207.703125 373.824219 207.703125 373.824219 C 207.09375 373.375 206.496094 372.914062 205.910156 372.4375 C 205.695312 372.105469 205.492188 371.757812 205.3125 371.402344 C 203.4375 367.734375 203.765625 362.847656 206.660156 359.910156 C 208.625 357.917969 211.53125 357.007812 214.332031 357.136719 C 217.128906 357.265625 219.820312 358.359375 222.164062 359.890625 C 226.445312 362.683594 229.601562 366.855469 232.019531 371.394531 C 231.828125 370.804688 231.757812 370.152344 231.699219 369.535156 C 230.546875 357.910156 227.914062 346.4375 223.882812 335.472656 C 227.808594 339.398438 232.621094 341.804688 237.652344 342.351562 C 242.683594 342.898438 247.898438 341.578125 252.066406 338.707031 Z M 291.976562 358.792969 C 292.078125 358.679688 292.175781 358.5625 292.269531 358.445312 C 291.230469 358.097656 290.128906 357.910156 289.039062 357.914062 C 291.214844 349.121094 293.164062 340.277344 294.917969 331.425781 C 291.125 334.109375 287.242188 336.835938 282.785156 338.164062 C 278.328125 339.496094 273.117188 339.203125 269.941406 335.675781 C 267.574219 347.917969 267.640625 360.625 270.339844 373.015625 C 274.234375 373.609375 278.207031 373.691406 282.144531 373.324219 C 282.1875 373.398438 282.230469 373.476562 282.28125 373.550781 C 289.273438 373.464844 293.800781 373.359375 293.769531 373.222656 C 295.765625 373.195312 297.476562 371.464844 297.886719 369.511719 C 298.292969 367.558594 297.597656 365.5 296.4375 363.878906 C 295.277344 362.253906 293.6875 360.992188 291.976562 358.792969 Z M 303.257812 175.769531 C 302.328125 173.160156 300.230469 171.171875 297.953125 169.683594 C 297.039062 169.105469 296.0625 168.625 295.03125 168.304688 C 294.03125 168.03125 292.996094 167.890625 291.960938 167.835938 C 291.308594 167.8125 290.660156 167.890625 290.015625 167.980469 C 288.824219 168.125 287.644531 168.417969 286.546875 168.910156 C 284.960938 169.585938 283.566406 170.648438 282.261719 171.761719 C 281.1875 172.78125 280.320312 174.007812 279.570312 175.28125 C 278.1875 177.679688 277.585938 180.429688 277.308594 183.15625 C 277.257812 183.585938 277.230469 184.019531 277.199219 184.453125 C 277.183594 184.535156 277.179688 184.617188 277.179688 184.695312 C 277.179688 184.699219 277.179688 184.703125 277.175781 184.707031 C 277.175781 184.703125 277.175781 184.703125 277.179688 184.699219 C 277.164062 185.632812 277.871094 186.433594 278.875 186.441406 C 279.324219 186.414062 279.761719 186.28125 280.078125 185.945312 C 280.167969 185.832031 280.253906 185.71875 280.34375 185.601562 C 280.550781 185.265625 280.59375 184.875 280.570312 184.484375 C 280.660156 182.066406 280.648438 181.554688 281.570312 179.042969 C 281.597656 178.972656 281.617188 178.925781 281.628906 178.902344 C 281.96875 178.128906 282.390625 177.394531 282.871094 176.699219 C 283.679688 175.578125 283.171875 176.175781 284.242188 174.996094 C 285.203125 174.097656 285.019531 174.238281 286.617188 173.234375 C 287.011719 173 287.414062 172.78125 287.832031 172.589844 C 288.585938 172.304688 289.375 172.109375 290.175781 171.988281 C 290.832031 171.914062 291.496094 171.878906 292.15625 171.9375 C 292.207031 171.941406 292.257812 171.949219 292.308594 171.953125 C 292.511719 171.988281 292.710938 172.019531 292.910156 172.066406 C 293.355469 172.15625 293.792969 172.28125 294.21875 172.4375 C 294.335938 172.492188 294.453125 172.546875 294.566406 172.605469 C 296.023438 173.351562 296.597656 173.828125 296.949219 174.097656 C 297.085938 174.214844 297.808594 174.71875 298.875 175.894531 C 298.882812 175.902344 298.894531 175.917969 298.902344 175.925781 C 298.914062 175.941406 298.925781 175.957031 298.9375 175.972656 C 298.9375 175.96875 298.933594 175.964844 298.929688 175.960938 C 299.113281 176.175781 299.304688 176.386719 299.488281 176.605469 C 299.59375 176.761719 299.691406 176.925781 299.804688 177.078125 C 299.824219 177.105469 299.847656 177.140625 299.878906 177.1875 C 300.117188 177.601562 300.519531 177.910156 300.980469 178.035156 C 301.386719 178.105469 301.820312 178.160156 302.1875 177.941406 C 303.03125 177.648438 303.503906 176.621094 303.257812 175.769531 Z M 205.6875 201.453125 C 205.738281 199.65625 205.714844 200.21875 205.9375 198.828125 C 206.160156 197.726562 206.484375 196.644531 206.890625 195.59375 C 206.921875 195.511719 206.957031 195.425781 206.992188 195.339844 C 207.300781 194.644531 207.679688 193.976562 208.128906 193.363281 C 208.480469 192.921875 208.875 192.519531 209.308594 192.160156 C 209.878906 191.742188 210.480469 191.363281 211.089844 191 C 211.277344 190.894531 211.46875 190.792969 211.664062 190.695312 C 211.8125 190.640625 211.957031 190.585938 212.109375 190.539062 C 212.4375 190.433594 212.773438 190.351562 213.117188 190.292969 C 213.726562 190.230469 214.347656 190.238281 214.957031 190.304688 C 214.980469 190.308594 215 190.308594 215.019531 190.3125 C 215.21875 190.34375 215.414062 190.375 215.613281 190.410156 C 216.609375 190.570312 217.585938 190.824219 218.542969 191.125 C 218.800781 191.203125 219.058594 191.296875 219.308594 191.398438 C 219.398438 191.4375 219.484375 191.476562 219.570312 191.519531 C 220.785156 192.078125 221.558594 192.628906 222.066406 193.011719 C 223.132812 193.851562 224.121094 194.796875 225.003906 195.828125 C 225.882812 196.890625 225.328125 196.226562 226.179688 197.328125 C 226.292969 197.515625 226.429688 197.671875 226.613281 197.789062 C 227.128906 198.25 227.960938 198.265625 228.546875 197.925781 C 229.105469 197.558594 229.378906 197.09375 229.410156 196.421875 C 229.425781 195.726562 228.941406 195.1875 228.570312 194.648438 C 228.203125 194.136719 227.816406 193.640625 227.425781 193.148438 C 227.363281 193.074219 227.304688 193 227.242188 192.925781 L 227.300781 193 C 227.246094 192.933594 227.191406 192.863281 227.132812 192.792969 C 226.058594 191.480469 224.859375 190.265625 223.457031 189.296875 C 221.648438 188.058594 219.554688 187.289062 217.410156 186.863281 C 215.84375 186.542969 214.230469 186.394531 212.648438 186.679688 C 211.6875 186.828125 210.757812 187.175781 209.882812 187.59375 C 209.246094 187.925781 208.65625 188.34375 208.066406 188.753906 C 207.566406 189.113281 207.054688 189.5 206.605469 189.921875 C 205.757812 190.75 205.011719 191.691406 204.410156 192.714844 C 203.699219 194.050781 203.148438 195.480469 202.753906 196.941406 C 202.5 197.9375 202.375 198.964844 202.253906 199.984375 C 202.203125 200.472656 202.207031 200.964844 202.203125 201.453125 C 202.195312 202.125 202.625 202.824219 203.273438 203.042969 C 203.621094 203.246094 204.027344 203.199219 204.410156 203.132812 C 205.144531 202.933594 205.699219 202.214844 205.6875 201.453125 Z M 269.113281 208.414062 C 268.636719 208.339844 268.183594 208.167969 267.742188 207.980469 C 267.390625 207.835938 267.042969 207.675781 266.726562 207.460938 C 266.269531 207.148438 265.855469 206.789062 265.484375 206.386719 C 264.753906 208.179688 263.5 209.777344 261.765625 210.65625 C 261.0625 210.984375 260.3125 211.1875 259.546875 211.304688 C 258.964844 211.398438 258.371094 211.464844 257.78125 211.40625 C 257.28125 211.355469 256.777344 211.300781 256.289062 211.179688 C 255.566406 210.960938 254.867188 210.660156 254.203125 210.296875 C 253.035156 209.652344 252.128906 208.636719 251.410156 207.53125 C 250.703125 206.3125 251.835938 204.847656 253.1875 205.214844 C 253.457031 205.289062 253.699219 205.4375 253.894531 205.632812 C 253.894531 205.632812 253.890625 205.632812 253.890625 205.628906 C 253.890625 205.632812 253.894531 205.632812 253.894531 205.636719 C 253.96875 205.710938 254.035156 205.792969 254.09375 205.882812 C 254.09375 205.882812 254.09375 205.882812 254.097656 205.886719 C 254.152344 205.957031 254.207031 206.03125 254.261719 206.105469 C 254.5625 206.480469 254.898438 206.824219 255.257812 207.144531 C 255.449219 207.292969 255.347656 207.292969 256.253906 207.785156 C 256.863281 208.105469 257.410156 208.257812 258.003906 208.308594 C 258.28125 208.328125 258.558594 208.328125 258.835938 208.300781 C 259.234375 208.238281 259.628906 208.15625 260.015625 208.046875 C 260.121094 208.015625 260.222656 207.984375 260.324219 207.945312 C 260.613281 207.804688 260.890625 207.632812 261.15625 207.445312 C 261.449219 207.195312 261.722656 206.921875 261.972656 206.628906 C 262.035156 206.554688 262.265625 206.332031 262.71875 205.5 C 262.789062 205.371094 262.855469 205.234375 262.914062 205.097656 C 263.015625 204.851562 263.109375 204.601562 263.1875 204.34375 C 263.207031 204.285156 263.226562 204.222656 263.242188 204.160156 C 263.085938 204.148438 262.925781 204.128906 262.761719 204.097656 C 261.882812 203.949219 261.023438 203.640625 260.226562 203.234375 C 258.964844 202.445312 258.046875 201.054688 257.925781 199.5625 C 257.789062 198.105469 258.667969 196.789062 259.675781 195.8125 C 259.730469 195.761719 259.789062 195.710938 259.847656 195.664062 C 259.84375 195.667969 259.839844 195.671875 259.835938 195.675781 C 262.296875 193.523438 265.777344 193.144531 268.910156 193.589844 C 269.875 193.703125 270.808594 194.011719 271.679688 194.433594 C 272.222656 194.746094 272.769531 195.148438 273.183594 195.632812 C 273.164062 195.609375 273.144531 195.585938 273.125 195.558594 C 273.148438 195.585938 273.167969 195.613281 273.1875 195.640625 C 273.226562 195.683594 273.261719 195.730469 273.300781 195.777344 C 273.449219 195.964844 273.597656 196.152344 273.6875 196.375 C 274.167969 197.316406 274.222656 198.433594 273.835938 199.417969 C 273.605469 200 273.339844 200.625 272.941406 201.058594 C 272.785156 201.261719 272.621094 201.460938 272.441406 201.644531 C 271.65625 202.421875 271.058594 202.789062 270.890625 202.917969 C 269.960938 203.59375 268.878906 204.027344 267.804688 204.429688 C 267.835938 204.457031 267.871094 204.484375 267.902344 204.511719 C 268.101562 204.652344 268.3125 204.785156 268.535156 204.886719 C 268.515625 204.878906 268.5 204.871094 268.480469 204.863281 C 268.539062 204.886719 268.601562 204.914062 268.660156 204.941406 C 268.914062 205.039062 269.175781 205.121094 269.441406 205.183594 C 269.496094 205.199219 269.554688 205.207031 269.613281 205.21875 C 269.726562 205.230469 269.835938 205.242188 269.949219 205.257812 C 269.890625 205.25 269.832031 205.242188 269.777344 205.234375 C 270.03125 205.257812 270.289062 205.265625 270.546875 205.265625 C 270.78125 205.261719 271.019531 205.253906 271.253906 205.234375 C 272.691406 204.976562 273.679688 204.386719 274.574219 203.371094 C 275.132812 202.578125 275.148438 202.328125 275.332031 202 C 275.457031 201.753906 275.660156 201.554688 275.894531 201.398438 C 276.722656 200.878906 277.972656 201.457031 278.03125 202.445312 C 278.125 202.820312 277.960938 203.183594 277.8125 203.523438 C 277.597656 204.027344 277.34375 204.515625 277.011719 204.957031 C 275.765625 206.695312 273.835938 207.941406 271.726562 208.339844 C 270.863281 208.46875 269.980469 208.589844 269.113281 208.414062 Z M 261.398438 199.941406 C 261.335938 199.75 261.292969 199.550781 261.261719 199.347656 C 261.257812 199.351562 261.257812 199.355469 261.253906 199.359375 C 261.25 199.375 261.246094 199.390625 261.242188 199.410156 C 261.242188 199.421875 261.242188 199.4375 261.242188 199.449219 C 261.238281 199.492188 261.242188 199.53125 261.242188 199.570312 C 261.257812 199.636719 261.28125 199.699219 261.300781 199.761719 C 261.332031 199.824219 261.363281 199.882812 261.398438 199.941406 Z M 261.398438 199.941406 " fill-opacity="1" fill-rule="nonzero"/><g clip-path="url(#a4437a898b)"><path fill="#c36b40" d="M 253.871094 372.820312 C 253.777344 373.148438 253.613281 373.480469 253.257812 373.578125 C 253.164062 373.609375 253.066406 373.613281 252.972656 373.601562 C 252.871094 373.65625 252.765625 373.707031 252.660156 373.738281 C 252.261719 373.882812 251.835938 373.875 251.417969 373.886719 C 250.394531 373.917969 249.363281 373.886719 248.339844 373.890625 C 246.914062 373.875 245.488281 373.828125 244.0625 373.84375 C 242.371094 373.886719 240.679688 373.953125 238.988281 374.035156 C 237.171875 374.113281 235.320312 374.429688 233.519531 374.039062 C 233.175781 373.96875 232.832031 373.839844 232.53125 373.652344 C 232.492188 373.671875 232.445312 373.691406 232.398438 373.703125 C 232.113281 373.785156 231.761719 373.683594 231.59375 373.429688 C 231.445312 373.28125 231.441406 373.066406 231.40625 372.875 C 231.308594 372.332031 231.222656 371.785156 231.125 371.242188 C 230.679688 369.300781 230.367188 367.324219 229.976562 365.367188 C 229.21875 361.46875 228.292969 357.605469 227.4375 353.726562 C 226.253906 348.242188 225.019531 342.769531 223.714844 337.3125 C 222.425781 331.933594 221.101562 326.554688 219.394531 321.289062 C 219.070312 320.691406 218.707031 320.113281 218.328125 319.550781 C 217.988281 319.027344 217.324219 318.285156 216.617188 317.515625 C 215.9375 316.765625 215.242188 316.035156 214.460938 315.390625 C 213.476562 314.496094 210.660156 312.992188 209.441406 312.503906 C 207.941406 311.867188 206.042969 311.441406 204.886719 311.34375 C 203.988281 311.25 203.078125 311.175781 202.179688 311.289062 C 201.679688 311.300781 201.417969 310.660156 201.777344 310.316406 C 201.882812 310.210938 202.027344 310.148438 202.179688 310.148438 C 202.40625 310.125 202.636719 310.101562 202.867188 310.09375 C 204.394531 310.078125 205.925781 310.273438 207.414062 310.617188 C 209.105469 311.046875 210.722656 311.730469 212.273438 312.527344 C 213.207031 313.015625 214.132812 313.53125 214.976562 314.164062 C 215.925781 314.878906 216.753906 315.730469 217.550781 316.605469 C 217.671875 316.734375 217.789062 316.859375 217.910156 316.992188 C 216.988281 314.460938 215.976562 311.847656 215.28125 310.210938 C 214.105469 307.46875 212.753906 304.808594 211.40625 302.148438 C 211 301.441406 211.875 300.726562 212.480469 301.207031 C 212.558594 301.257812 212.625 301.328125 212.667969 301.410156 C 212.894531 301.84375 213.121094 302.277344 213.347656 302.710938 C 213.804688 303.585938 214.253906 304.460938 214.699219 305.339844 C 216.644531 309.058594 218.050781 312.511719 219.4375 315.972656 C 222.316406 323.050781 224.148438 330.488281 225.972656 337.890625 C 227.265625 343.0625 228.394531 348.273438 229.453125 353.496094 C 230.40625 358.046875 231.394531 362.589844 232.15625 367.175781 C 232.328125 368.136719 232.585938 369.8125 232.59375 370.035156 C 232.65625 370.765625 232.621094 370.53125 232.730469 371.351562 C 232.761719 371.554688 232.789062 371.761719 232.820312 371.964844 C 232.824219 371.984375 232.828125 372.007812 232.832031 372.027344 C 232.851562 372.113281 232.875 372.195312 232.902344 372.277344 C 232.90625 372.285156 232.914062 372.296875 232.921875 372.316406 C 232.933594 372.335938 232.941406 372.351562 232.949219 372.363281 C 233.007812 372.425781 233.070312 372.480469 233.132812 372.535156 C 233.367188 372.757812 234.585938 373.015625 235.875 372.921875 C 238.722656 372.734375 241.566406 372.523438 244.417969 372.433594 C 246.734375 372.410156 249.050781 372.433594 251.363281 372.304688 C 251.507812 372.296875 251.449219 372.300781 251.878906 372.238281 C 251.867188 372.238281 251.855469 372.242188 251.847656 372.242188 C 251.9375 372.230469 252.03125 372.210938 252.125 372.183594 C 252.183594 372.117188 252.25 372.058594 252.332031 372.011719 C 252.367188 371.988281 252.402344 371.972656 252.441406 371.957031 C 252.449219 371.695312 252.445312 371.386719 252.453125 371.070312 C 252.476562 369.246094 252.402344 367.425781 252.3125 365.605469 C 252.246094 362.667969 252.183594 359.730469 252.160156 356.796875 C 252.171875 350.917969 251.820312 345.050781 251.558594 339.183594 C 251.355469 334.738281 251.203125 330.292969 251.011719 325.851562 C 250.941406 324.003906 250.84375 322.15625 250.792969 320.308594 C 250.757812 318.90625 250.792969 317.503906 250.726562 316.101562 C 250.71875 315.59375 251.351562 315.363281 251.691406 315.703125 C 251.898438 315.902344 251.855469 316.199219 251.882812 316.460938 C 251.921875 317.035156 251.941406 317.609375 251.964844 318.183594 C 252.082031 321.871094 252.464844 325.542969 252.664062 329.226562 C 253.0625 336.265625 253.433594 343.304688 253.789062 350.34375 C 253.992188 354.652344 254.042969 358.964844 254.085938 363.277344 C 254.105469 364.859375 254.105469 366.4375 254.101562 368.015625 C 254.113281 369.675781 254.082031 371.796875 253.871094 372.820312 Z M 194.636719 359.082031 C 194.4375 358.730469 194.234375 358.378906 194.035156 358.027344 C 193.511719 357.097656 193.039062 356.144531 192.582031 355.183594 C 191.136719 352.054688 189.996094 349.46875 188.867188 346.089844 C 188.09375 343.675781 187.554688 341.195312 187.074219 338.710938 C 186.585938 336.050781 186.3125 333.492188 186.421875 330.46875 C 186.511719 328.390625 186.671875 326.308594 186.90625 324.238281 C 186.886719 323.457031 185.726562 323.433594 185.695312 324.238281 C 185.292969 327.722656 184.925781 331.246094 185.269531 334.753906 C 185.488281 337.019531 185.890625 339.265625 186.398438 341.484375 C 186.78125 343.164062 187.195312 344.84375 187.734375 346.480469 C 188.78125 349.613281 190.117188 352.640625 191.492188 355.644531 C 191.992188 356.707031 192.515625 357.757812 193.082031 358.785156 C 193.246094 359.085938 193.414062 359.386719 193.578125 359.6875 C 193.65625 359.816406 193.710938 359.964844 193.839844 360.042969 C 194.023438 360.207031 194.3125 360.210938 194.519531 360.09375 C 194.703125 359.980469 194.816406 359.78125 194.820312 359.566406 C 194.828125 359.382812 194.722656 359.234375 194.636719 359.082031 Z M 297.773438 322.472656 C 297.75 322.078125 297.246094 321.839844 296.914062 322.050781 C 296.59375 322.246094 296.597656 322.65625 296.480469 322.972656 C 296.1875 323.921875 296 324.902344 295.695312 325.847656 C 295.007812 328.050781 294.320312 330.253906 293.796875 332.503906 C 293.289062 334.65625 292.929688 336.839844 292.449219 339 C 291.980469 341.183594 291.429688 343.351562 290.941406 345.527344 C 290.464844 347.601562 290.054688 349.691406 289.628906 351.773438 C 288.71875 356.242188 287.5625 360.65625 286.582031 365.105469 C 286.046875 367.539062 285.429688 369.949219 284.796875 372.355469 C 284.765625 372.351562 284.738281 372.347656 284.707031 372.347656 C 284.464844 372.355469 284.222656 372.347656 283.976562 372.355469 C 283.121094 372.355469 282.265625 372.382812 281.410156 372.433594 C 279.160156 372.578125 276.914062 372.800781 274.660156 372.894531 C 273.832031 372.941406 272.546875 372.886719 272.070312 372.832031 C 272.058594 372.832031 272.050781 372.832031 272.035156 372.828125 C 271.855469 372.796875 271.675781 372.765625 271.5 372.710938 C 271.488281 372.699219 271.476562 372.6875 271.46875 372.675781 C 271.394531 372.570312 271.324219 372.457031 271.25 372.351562 C 271.261719 372.363281 271.269531 372.378906 271.277344 372.386719 C 271.25 372.34375 271.222656 372.296875 271.191406 372.25 C 270.878906 371.835938 270.496094 370.242188 270.457031 369.828125 C 270.089844 366.664062 269.914062 361.425781 269.773438 357.515625 C 269.644531 353.1875 269.480469 348.851562 269.753906 344.527344 C 270.078125 339.378906 270.667969 334.253906 271.144531 329.121094 C 271.4375 326.183594 271.777344 323.253906 272.128906 320.328125 C 272.207031 319.648438 272.300781 318.96875 272.375 318.289062 C 272.398438 318.035156 272.417969 317.78125 272.4375 317.523438 C 272.441406 317.4375 272.421875 317.355469 272.382812 317.28125 C 272.144531 316.675781 271.179688 316.828125 271.179688 317.523438 C 270.976562 319.78125 270.625 322.019531 270.378906 324.273438 C 269.976562 327.695312 269.644531 331.121094 269.292969 334.546875 C 268.804688 339.453125 268.257812 344.367188 268.214844 349.304688 C 268.210938 353.308594 268.285156 357.316406 268.414062 361.316406 C 268.585938 364.566406 268.589844 367.847656 269.203125 371.054688 C 269.398438 372.007812 269.882812 373.582031 270.679688 373.996094 C 270.847656 374.082031 271.035156 374.082031 271.207031 374.027344 C 271.675781 374.171875 272.167969 374.230469 272.65625 374.277344 C 273.796875 374.398438 274.945312 374.398438 276.089844 374.339844 C 278.539062 374.203125 280.988281 374.074219 283.433594 373.925781 C 283.871094 373.894531 284.304688 373.847656 284.734375 373.78125 C 284.785156 373.78125 284.835938 373.773438 284.882812 373.761719 C 285.214844 373.972656 285.734375 373.878906 285.863281 373.402344 C 286.742188 370.363281 287.546875 367.304688 288.242188 364.21875 C 288.957031 361.242188 289.699219 358.265625 290.390625 355.28125 C 291.304688 351.332031 291.972656 347.335938 292.925781 343.398438 C 293.757812 339.871094 294.304688 336.289062 295.085938 332.753906 C 295.429688 331.132812 295.910156 329.542969 296.355469 327.945312 C 296.703125 326.78125 296.972656 325.59375 297.324219 324.429688 C 297.441406 324.042969 297.523438 323.652344 297.625 323.265625 C 297.667969 323 297.808594 322.742188 297.773438 322.472656 Z M 297.773438 322.472656 " fill-opacity="1" fill-rule="nonzero"/></g><path fill="#f29990" d="M 290.128906 194.789062 C 289.597656 192.546875 295.070312 189.324219 302.355469 187.59375 C 309.640625 185.863281 315.976562 186.28125 316.511719 188.523438 C 317.050781 190.765625 311.574219 193.988281 304.289062 195.71875 C 297.003906 197.449219 290.664062 197.03125 290.128906 194.789062 Z M 211.621094 218.699219 C 218.90625 216.96875 224.378906 213.75 223.84375 211.503906 C 223.3125 209.261719 216.972656 208.847656 209.683594 210.578125 C 202.398438 212.308594 196.925781 215.527344 197.460938 217.769531 C 197.996094 220.015625 204.335938 220.429688 211.621094 218.699219 Z M 211.621094 218.699219 " fill-opacity="1" fill-rule="nonzero"/><g fill="#000000" fill-opacity="1"><g transform="translate(0.0000045, 42.559273)"><g><path d="M 3.34375 -29.390625 C 3.695312 -29.421875 4.445312 -29.4375 5.59375 -29.4375 C 6.351562 -29.4375 6.804688 -29.410156 6.953125 -29.359375 C 7.097656 -29.316406 7.1875 -29.195312 7.21875 -29 C 7.25 -28.789062 7.289062 -28.675781 7.34375 -28.65625 C 7.40625 -28.644531 7.46875 -28.640625 7.53125 -28.640625 C 7.675781 -28.640625 7.878906 -28.65625 8.140625 -28.6875 C 9.804688 -28.925781 11.332031 -29.046875 12.71875 -29.046875 C 15.738281 -29.046875 18.023438 -28.472656 19.578125 -27.328125 C 20.078125 -26.941406 20.488281 -26.53125 20.8125 -26.09375 C 21.132812 -25.65625 21.472656 -25.039062 21.828125 -24.25 C 22.023438 -23.75 22.144531 -23.328125 22.1875 -22.984375 C 22.238281 -22.648438 22.265625 -21.96875 22.265625 -20.9375 C 22.265625 -20.03125 22.238281 -19.367188 22.1875 -18.953125 C 22.144531 -18.546875 22.039062 -18.109375 21.875 -17.640625 C 21.601562 -16.941406 21.125 -16.179688 20.4375 -15.359375 C 19.75 -14.535156 19.082031 -13.929688 18.4375 -13.546875 C 18.175781 -13.398438 17.96875 -13.257812 17.8125 -13.125 C 17.664062 -13 17.59375 -12.890625 17.59375 -12.796875 C 17.59375 -12.773438 17.59375 -12.765625 17.59375 -12.765625 C 17.625 -12.617188 18.070312 -11.863281 18.9375 -10.5 C 19.800781 -9.132812 20.675781 -7.71875 21.5625 -6.25 C 22.5 -4.695312 22.96875 -3.875 22.96875 -3.78125 C 22.96875 -3.664062 22.460938 -3.179688 21.453125 -2.328125 C 20.441406 -1.484375 19.832031 -1.03125 19.625 -0.96875 C 19.507812 -0.96875 19.273438 -1.238281 18.921875 -1.78125 C 18.566406 -2.320312 18.1875 -2.929688 17.78125 -3.609375 C 16.84375 -5.128906 15.65625 -6.976562 14.21875 -9.15625 L 12.28125 -12.09375 L 7.21875 -12.09375 L 7.4375 -1.5 L 2.734375 -1.5 L 2.6875 -8.671875 C 2.6875 -12.984375 2.671875 -17.628906 2.640625 -22.609375 L 2.640625 -29.296875 Z M 15.3125 -23.890625 C 14.75 -24.066406 13.707031 -24.15625 12.1875 -24.15625 C 11.332031 -24.15625 10.320312 -24.125 9.15625 -24.0625 C 9.15625 -24.0625 9.140625 -24.0625 9.109375 -24.0625 C 9.078125 -24.0625 9.0625 -24.0625 9.0625 -24.0625 L 9.015625 -24.0625 C 9.015625 -24.0625 9 -24.0625 8.96875 -24.0625 L 8.75 -24.0625 C 8.726562 -24.0625 8.71875 -24.0625 8.71875 -24.0625 C 7.945312 -24.039062 7.507812 -23.914062 7.40625 -23.6875 C 7.3125 -23.46875 7.265625 -22.890625 7.265625 -21.953125 C 7.265625 -21.722656 7.265625 -21.472656 7.265625 -21.203125 C 7.265625 -21.171875 7.265625 -21.15625 7.265625 -21.15625 L 7.265625 -21.125 C 7.265625 -21.09375 7.265625 -21.078125 7.265625 -21.078125 L 7.265625 -20.984375 C 7.265625 -20.984375 7.265625 -20.96875 7.265625 -20.9375 C 7.265625 -20.914062 7.265625 -20.890625 7.265625 -20.859375 L 7.265625 -20.765625 C 7.265625 -20.734375 7.265625 -20.71875 7.265625 -20.71875 L 7.265625 -16.890625 L 10.875 -16.984375 C 12.332031 -17.015625 13.347656 -17.050781 13.921875 -17.09375 C 14.492188 -17.132812 14.941406 -17.242188 15.265625 -17.421875 C 16.023438 -17.710938 16.601562 -18.171875 17 -18.796875 C 17.394531 -19.429688 17.59375 -20.070312 17.59375 -20.71875 C 17.59375 -21.363281 17.398438 -21.992188 17.015625 -22.609375 C 16.640625 -23.234375 16.070312 -23.660156 15.3125 -23.890625 Z M 15.3125 -23.890625 "/></g></g></g><g fill="#000000" fill-opacity="1"><g transform="translate(23.843128, 42.559273)"><g><path d="M 12.984375 -8.265625 C 12.984375 -8.765625 12.96875 -9.109375 12.9375 -9.296875 C 12.90625 -9.492188 12.847656 -9.59375 12.765625 -9.59375 C 12.734375 -9.59375 12.617188 -9.582031 12.421875 -9.5625 C 12.234375 -9.550781 11.96875 -9.53125 11.625 -9.5 C 11.289062 -9.46875 10.992188 -9.441406 10.734375 -9.421875 C 9.535156 -9.359375 8.65625 -9.253906 8.09375 -9.109375 C 7.300781 -8.929688 6.695312 -8.5625 6.28125 -8 C 5.875 -7.445312 5.816406 -6.878906 6.109375 -6.296875 C 6.460938 -5.554688 7.234375 -5.191406 8.421875 -5.203125 C 9.609375 -5.222656 10.832031 -5.628906 12.09375 -6.421875 L 12.984375 -6.953125 Z M 6.6875 -20.375 C 7.738281 -20.550781 9 -20.609375 10.46875 -20.546875 C 12.144531 -20.484375 13.414062 -20.273438 14.28125 -19.921875 C 15.144531 -19.578125 15.851562 -18.992188 16.40625 -18.171875 C 16.820312 -17.523438 17.09375 -16.671875 17.21875 -15.609375 C 17.351562 -14.554688 17.453125 -12.460938 17.515625 -9.328125 C 17.597656 -5.691406 17.671875 -3.460938 17.734375 -2.640625 L 17.8125 -1.625 L 16.453125 -1.546875 C 15.722656 -1.453125 14.976562 -1.375 14.21875 -1.3125 L 13.28125 -1.234375 L 13.28125 -1.984375 C 13.28125 -2.503906 13.269531 -2.765625 13.25 -2.765625 C 13.21875 -2.765625 12.757812 -2.5625 11.875 -2.15625 C 10.0625 -1.300781 8.289062 -0.992188 6.5625 -1.234375 C 5.320312 -1.410156 4.335938 -1.742188 3.609375 -2.234375 C 2.878906 -2.734375 2.273438 -3.46875 1.796875 -4.4375 C 1.628906 -4.820312 1.515625 -5.160156 1.453125 -5.453125 C 1.390625 -5.742188 1.359375 -6.210938 1.359375 -6.859375 C 1.359375 -7.472656 1.390625 -7.9375 1.453125 -8.25 C 1.515625 -8.5625 1.644531 -8.9375 1.84375 -9.375 C 2.132812 -9.957031 2.535156 -10.515625 3.046875 -11.046875 C 3.566406 -11.578125 4.117188 -11.988281 4.703125 -12.28125 C 5.734375 -12.78125 7.742188 -13.175781 10.734375 -13.46875 L 12.984375 -13.6875 L 12.890625 -14.34375 C 12.804688 -14.78125 12.675781 -15.128906 12.5 -15.390625 C 12.320312 -15.660156 12.054688 -15.882812 11.703125 -16.0625 C 11.472656 -16.207031 11.179688 -16.296875 10.828125 -16.328125 C 10.472656 -16.359375 9.8125 -16.359375 8.84375 -16.328125 C 7.257812 -16.328125 6.039062 -16.238281 5.1875 -16.0625 C 4.957031 -16.03125 4.734375 -16 4.515625 -15.96875 C 4.296875 -15.9375 4.132812 -15.914062 4.03125 -15.90625 C 3.925781 -15.894531 3.875 -15.898438 3.875 -15.921875 C 3.875 -15.953125 3.785156 -16.539062 3.609375 -17.6875 C 3.429688 -18.832031 3.34375 -19.460938 3.34375 -19.578125 C 3.34375 -19.816406 4.457031 -20.082031 6.6875 -20.375 Z M 6.6875 -20.375 "/></g></g></g><g fill="#000000" fill-opacity="1"><g transform="translate(43.815044, 42.559273)"><g><path d="M 8.796875 -20.71875 C 9.410156 -20.84375 10.25 -20.90625 11.3125 -20.90625 C 11.507812 -20.90625 11.726562 -20.90625 11.96875 -20.90625 C 12.90625 -20.875 13.59375 -20.820312 14.03125 -20.75 C 14.476562 -20.675781 15.050781 -20.519531 15.75 -20.28125 C 16.832031 -19.90625 17.445312 -19.671875 17.59375 -19.578125 C 17.65625 -19.546875 17.6875 -19.472656 17.6875 -19.359375 C 17.6875 -19.296875 17.664062 -19.160156 17.625 -18.953125 C 17.582031 -18.753906 17.441406 -18.289062 17.203125 -17.5625 C 16.765625 -16.289062 16.53125 -15.644531 16.5 -15.625 C 16.382812 -15.625 15.914062 -15.769531 15.09375 -16.0625 C 14.507812 -16.269531 14.023438 -16.398438 13.640625 -16.453125 C 13.253906 -16.515625 12.609375 -16.546875 11.703125 -16.546875 C 10.828125 -16.546875 10.21875 -16.519531 9.875 -16.46875 C 9.539062 -16.425781 9.195312 -16.332031 8.84375 -16.1875 C 7.082031 -15.3125 6.128906 -13.832031 5.984375 -11.75 C 5.984375 -11.570312 5.984375 -11.410156 5.984375 -11.265625 C 5.984375 -10.117188 6.171875 -9.132812 6.546875 -8.3125 C 6.929688 -7.488281 7.625 -6.832031 8.625 -6.34375 C 9.175781 -6.039062 9.59375 -5.859375 9.875 -5.796875 C 10.15625 -5.742188 10.734375 -5.71875 11.609375 -5.71875 C 12.523438 -5.75 13.257812 -5.820312 13.8125 -5.9375 C 14.375 -6.050781 15.140625 -6.316406 16.109375 -6.734375 C 16.128906 -6.734375 16.15625 -6.734375 16.1875 -6.734375 C 16.28125 -6.734375 16.382812 -6.628906 16.5 -6.421875 C 16.613281 -6.210938 16.816406 -5.710938 17.109375 -4.921875 C 17.140625 -4.835938 17.1875 -4.722656 17.25 -4.578125 C 17.363281 -4.316406 17.441406 -4.125 17.484375 -4 C 17.535156 -3.882812 17.582031 -3.738281 17.625 -3.5625 C 17.664062 -3.382812 17.6875 -3.265625 17.6875 -3.203125 C 17.6875 -3.148438 17.664062 -3.0625 17.625 -2.9375 C 17.582031 -2.820312 17.535156 -2.757812 17.484375 -2.75 C 17.441406 -2.738281 17.347656 -2.695312 17.203125 -2.625 C 17.054688 -2.550781 16.929688 -2.488281 16.828125 -2.4375 C 16.722656 -2.394531 16.539062 -2.34375 16.28125 -2.28125 C 16.132812 -2.226562 16.03125 -2.1875 15.96875 -2.15625 C 14.445312 -1.65625 12.894531 -1.40625 11.3125 -1.40625 C 11.101562 -1.40625 10.5 -1.425781 9.5 -1.46875 C 8.507812 -1.519531 7.320312 -1.910156 5.9375 -2.640625 C 4.46875 -3.398438 3.328125 -4.535156 2.515625 -6.046875 C 1.710938 -7.554688 1.3125 -9.28125 1.3125 -11.21875 C 1.3125 -12.976562 1.65625 -14.546875 2.34375 -15.921875 C 3.039062 -17.304688 4.050781 -18.421875 5.375 -19.265625 C 5.863281 -19.617188 6.363281 -19.898438 6.875 -20.109375 C 7.394531 -20.316406 8.035156 -20.519531 8.796875 -20.71875 Z M 8.796875 -20.71875 "/></g></g></g><g fill="#000000" fill-opacity="1"><g transform="translate(62.42323, 42.559273)"><g><path d="M 2.421875 -1.546875 L 2.421875 -29.921875 L 7 -29.78125 L 7 -24.421875 L 7.046875 -19.3125 L 7.4375 -19.53125 C 7.757812 -19.738281 8.375 -19.988281 9.28125 -20.28125 C 10.1875 -20.570312 10.953125 -20.75 11.578125 -20.8125 C 11.804688 -20.84375 12.050781 -20.859375 12.3125 -20.859375 C 12.789062 -20.859375 13.375 -20.8125 14.0625 -20.71875 C 14.75 -20.632812 15.441406 -20.445312 16.140625 -20.15625 C 16.765625 -19.914062 17.375 -19.476562 17.96875 -18.84375 C 18.570312 -18.21875 19.003906 -17.539062 19.265625 -16.8125 C 19.472656 -16.28125 19.597656 -15.660156 19.640625 -14.953125 C 19.691406 -14.253906 19.726562 -12.1875 19.75 -8.75 L 19.796875 -1.546875 L 15.140625 -1.546875 L 15.140625 -7.65625 C 15.171875 -8.15625 15.1875 -8.625 15.1875 -9.0625 C 15.1875 -9.269531 15.175781 -9.503906 15.15625 -9.765625 C 15.144531 -10.023438 15.140625 -10.273438 15.140625 -10.515625 C 15.140625 -10.773438 15.144531 -10.984375 15.15625 -11.140625 C 15.175781 -11.304688 15.1875 -11.453125 15.1875 -11.578125 C 15.1875 -11.867188 15.160156 -12.175781 15.109375 -12.5 C 15.066406 -12.820312 15.046875 -13.09375 15.046875 -13.3125 C 15.046875 -13.53125 15.015625 -13.738281 14.953125 -13.9375 C 14.898438 -14.144531 14.859375 -14.304688 14.828125 -14.421875 C 14.796875 -14.546875 14.734375 -14.664062 14.640625 -14.78125 C 14.554688 -14.894531 14.484375 -14.988281 14.421875 -15.0625 C 14.367188 -15.144531 14.269531 -15.242188 14.125 -15.359375 C 13.738281 -15.648438 13.390625 -15.832031 13.078125 -15.90625 C 12.773438 -15.976562 12.460938 -16.015625 12.140625 -16.015625 C 11.847656 -16.015625 11.507812 -16 11.125 -15.96875 C 10.601562 -15.96875 10.171875 -15.929688 9.828125 -15.859375 C 9.492188 -15.785156 9.046875 -15.585938 8.484375 -15.265625 L 7.125 -14.46875 L 7.046875 -1.546875 Z M 2.421875 -1.546875 "/></g></g></g><g fill="#000000" fill-opacity="1"><g transform="translate(84.418736, 42.559273)"><g><path d="M 11.921875 -16.234375 C 11.566406 -16.328125 11.097656 -16.378906 10.515625 -16.390625 C 9.929688 -16.398438 9.429688 -16.363281 9.015625 -16.28125 C 8.171875 -16.070312 7.46875 -15.628906 6.90625 -14.953125 C 6.644531 -14.628906 6.414062 -14.238281 6.21875 -13.78125 C 6.03125 -13.332031 5.984375 -13.050781 6.078125 -12.9375 C 6.128906 -12.875 7.488281 -12.910156 10.15625 -13.046875 C 12.832031 -13.179688 14.195312 -13.273438 14.25 -13.328125 C 14.3125 -13.359375 14.253906 -13.65625 14.078125 -14.21875 C 13.867188 -14.6875 13.570312 -15.109375 13.1875 -15.484375 C 12.8125 -15.867188 12.390625 -16.117188 11.921875 -16.234375 Z M 7.96875 -20.453125 C 10.226562 -20.953125 12.367188 -20.820312 14.390625 -20.0625 C 15.085938 -19.800781 15.8125 -19.296875 16.5625 -18.546875 C 17.3125 -17.796875 17.816406 -17.070312 18.078125 -16.375 C 18.398438 -15.519531 18.617188 -14.460938 18.734375 -13.203125 C 18.859375 -11.941406 18.847656 -10.84375 18.703125 -9.90625 L 18.609375 -9.28125 L 17.109375 -9.203125 C 16.410156 -9.140625 14.34375 -9.019531 10.90625 -8.84375 L 6.15625 -8.671875 L 6.25 -8.234375 C 6.570312 -6.992188 7.453125 -6.15625 8.890625 -5.71875 C 9.890625 -5.425781 10.929688 -5.351562 12.015625 -5.5 C 13.097656 -5.644531 14.179688 -6.007812 15.265625 -6.59375 L 16.59375 -7.296875 L 17.59375 -5.546875 C 18.007812 -4.835938 18.273438 -4.34375 18.390625 -4.0625 C 18.503906 -3.789062 18.519531 -3.609375 18.4375 -3.515625 C 18.257812 -3.316406 17.757812 -3.003906 16.9375 -2.578125 C 16.113281 -2.148438 15.367188 -1.816406 14.703125 -1.578125 C 14.078125 -1.378906 13.546875 -1.253906 13.109375 -1.203125 C 12.671875 -1.160156 11.925781 -1.140625 10.875 -1.140625 C 9.195312 -1.140625 8.066406 -1.210938 7.484375 -1.359375 C 5.484375 -1.921875 3.953125 -3.035156 2.890625 -4.703125 C 1.835938 -6.378906 1.3125 -8.476562 1.3125 -11 C 1.3125 -13.613281 1.890625 -15.722656 3.046875 -17.328125 C 4.210938 -18.941406 5.851562 -19.984375 7.96875 -20.453125 Z M 7.96875 -20.453125 "/></g></g></g><g fill="#000000" fill-opacity="1"><g transform="translate(104.346656, 42.559273)"><g><path d="M 2.734375 -29.296875 L 2.859375 -29.828125 L 7.125 -29.828125 L 7.125 -20.640625 C 7.125 -14.273438 7.082031 -9.550781 7 -6.46875 L 6.90625 -1.546875 L 2.421875 -1.546875 L 2.515625 -15.140625 C 2.566406 -24.253906 2.640625 -28.972656 2.734375 -29.296875 Z M 2.734375 -29.296875 "/></g></g></g><g fill="#000000" fill-opacity="1"><g transform="translate(113.892708, 42.559273)"><g><path d="M 3.515625 -27.109375 C 4.335938 -28.628906 4.84375 -29.53125 5.03125 -29.8125 C 5.226562 -30.09375 5.382812 -30.234375 5.5 -30.234375 C 5.53125 -30.234375 5.5625 -30.234375 5.59375 -30.234375 C 5.738281 -30.171875 6.351562 -29.816406 7.4375 -29.171875 L 8.9375 -28.34375 L 8.359375 -27.375 C 8.273438 -27.21875 8.132812 -26.972656 7.9375 -26.640625 C 7.75 -26.304688 7.515625 -25.894531 7.234375 -25.40625 C 6.953125 -24.925781 6.726562 -24.523438 6.5625 -24.203125 C 5.738281 -22.734375 5.28125 -21.984375 5.1875 -21.953125 C 5.1875 -21.953125 5.171875 -21.953125 5.140625 -21.953125 C 4.972656 -21.953125 4.40625 -22.25 3.4375 -22.84375 L 1.765625 -23.84375 Z M 3.515625 -27.109375 "/></g></g></g><g fill="#000000" fill-opacity="1"><g transform="translate(135.888214, 42.559273)"><g><path d="M 6.8125 -20.765625 C 7.40625 -20.859375 8.066406 -20.910156 8.796875 -20.921875 C 9.535156 -20.929688 9.988281 -20.9375 10.15625 -20.9375 C 11.25 -20.9375 12.25 -20.894531 13.15625 -20.8125 L 14.734375 -20.71875 L 14.65625 -17.03125 L 10.953125 -16.984375 C 9.191406 -16.984375 8.101562 -16.953125 7.6875 -16.890625 C 7.28125 -16.835938 6.960938 -16.722656 6.734375 -16.546875 C 6.378906 -16.273438 6.203125 -15.9375 6.203125 -15.53125 C 6.203125 -15.09375 6.390625 -14.765625 6.765625 -14.546875 C 7.148438 -14.328125 8.019531 -14.023438 9.375 -13.640625 C 10.664062 -13.285156 11.640625 -12.929688 12.296875 -12.578125 C 12.953125 -12.234375 13.515625 -11.828125 13.984375 -11.359375 C 14.546875 -10.765625 14.9375 -10.179688 15.15625 -9.609375 C 15.375 -9.035156 15.484375 -8.296875 15.484375 -7.390625 C 15.453125 -5.984375 15.132812 -4.816406 14.53125 -3.890625 C 13.9375 -2.972656 12.992188 -2.265625 11.703125 -1.765625 C 11.265625 -1.617188 10.816406 -1.519531 10.359375 -1.46875 C 9.910156 -1.425781 9.066406 -1.40625 7.828125 -1.40625 C 6.660156 -1.40625 5.789062 -1.441406 5.21875 -1.515625 C 4.644531 -1.585938 3.960938 -1.710938 3.171875 -1.890625 C 1.929688 -2.148438 1.3125 -2.34375 1.3125 -2.46875 C 1.3125 -2.550781 1.421875 -3.175781 1.640625 -4.34375 C 1.867188 -5.519531 2 -6.140625 2.03125 -6.203125 C 2.03125 -6.203125 2.039062 -6.203125 2.0625 -6.203125 C 2.1875 -6.203125 2.703125 -6.085938 3.609375 -5.859375 C 5.398438 -5.503906 6.867188 -5.328125 8.015625 -5.328125 C 8.359375 -5.328125 8.921875 -5.367188 9.703125 -5.453125 C 10.484375 -5.546875 10.898438 -6.03125 10.953125 -6.90625 C 10.953125 -7 10.953125 -7.070312 10.953125 -7.125 C 10.953125 -7.65625 10.738281 -8.066406 10.3125 -8.359375 C 9.894531 -8.648438 8.96875 -8.988281 7.53125 -9.375 C 4.882812 -10.070312 3.222656 -10.90625 2.546875 -11.875 C 2.046875 -12.550781 1.765625 -13.195312 1.703125 -13.8125 C 1.648438 -14.425781 1.625 -14.835938 1.625 -15.046875 C 1.625 -15.867188 1.800781 -16.660156 2.15625 -17.421875 C 2.507812 -18.242188 3.109375 -18.960938 3.953125 -19.578125 C 4.804688 -20.191406 5.757812 -20.585938 6.8125 -20.765625 Z M 6.8125 -20.765625 "/></g></g></g><g fill="#000000" fill-opacity="1"><g transform="translate(152.692778, 42.559273)"><g/></g></g><g fill="#000000" fill-opacity="1"><g transform="translate(165.978062, 42.559273)"><g><path d="M 2.640625 -28.6875 L 19.140625 -28.6875 L 19.140625 -24.109375 L 7.296875 -24.109375 L 7.296875 -20.71875 L 7.390625 -16.671875 L 18.609375 -16.671875 L 18.609375 -12.140625 L 7.34375 -12.140625 L 7.34375 -2.0625 L 2.640625 -2.0625 Z M 2.640625 -28.6875 "/></g></g></g><g fill="#000000" fill-opacity="1"><g transform="translate(186.213928, 42.559273)"><g><path d="M 9.109375 -20.984375 C 9.429688 -21.046875 9.84375 -21.078125 10.34375 -21.078125 C 10.664062 -21.078125 11.171875 -21.050781 11.859375 -21 C 12.546875 -20.957031 13.171875 -20.851562 13.734375 -20.6875 C 15.660156 -20.125 17.210938 -19 18.390625 -17.3125 C 19.566406 -15.625 20.15625 -13.648438 20.15625 -11.390625 C 20.15625 -9.867188 19.925781 -8.519531 19.46875 -7.34375 C 19.007812 -6.175781 18.300781 -5.09375 17.34375 -4.09375 C 16.664062 -3.414062 16.015625 -2.90625 15.390625 -2.5625 C 14.773438 -2.226562 14.015625 -1.945312 13.109375 -1.71875 C 12.234375 -1.507812 11.367188 -1.40625 10.515625 -1.40625 C 9.960938 -1.40625 9.203125 -1.484375 8.234375 -1.640625 C 7.265625 -1.804688 6.207031 -2.300781 5.0625 -3.125 C 3.914062 -3.945312 3.035156 -4.972656 2.421875 -6.203125 C 2.003906 -7.054688 1.710938 -7.847656 1.546875 -8.578125 C 1.390625 -9.316406 1.3125 -10.179688 1.3125 -11.171875 C 1.3125 -12.671875 1.507812 -13.96875 1.90625 -15.0625 C 2.3125 -16.164062 2.953125 -17.203125 3.828125 -18.171875 C 5.179688 -19.640625 6.941406 -20.578125 9.109375 -20.984375 Z M 12.5 -16.59375 C 11.96875 -16.769531 11.4375 -16.859375 10.90625 -16.859375 C 10.238281 -16.859375 9.429688 -16.664062 8.484375 -16.28125 C 7.546875 -15.894531 6.800781 -15.144531 6.25 -14.03125 C 6.007812 -13.59375 5.875 -13.21875 5.84375 -12.90625 C 5.820312 -12.601562 5.8125 -12.007812 5.8125 -11.125 C 5.8125 -10.363281 5.832031 -9.8125 5.875 -9.46875 C 5.914062 -9.132812 6.007812 -8.804688 6.15625 -8.484375 C 7.007812 -6.753906 8.375 -5.816406 10.25 -5.671875 C 10.425781 -5.671875 10.601562 -5.671875 10.78125 -5.671875 C 12.394531 -5.671875 13.6875 -6.289062 14.65625 -7.53125 C 15.269531 -8.375 15.585938 -9.171875 15.609375 -9.921875 C 15.640625 -10.671875 15.65625 -11.101562 15.65625 -11.21875 C 15.65625 -12.394531 15.453125 -13.394531 15.046875 -14.21875 C 14.785156 -14.769531 14.421875 -15.257812 13.953125 -15.6875 C 13.484375 -16.113281 13 -16.414062 12.5 -16.59375 Z M 12.5 -16.59375 "/></g></g></g><g fill="#000000" fill-opacity="1"><g transform="translate(207.681534, 42.559273)"><g><path d="M 12.1875 -18.125 C 14.007812 -20.238281 14.960938 -21.296875 15.046875 -21.296875 C 15.140625 -21.234375 15.679688 -20.75 16.671875 -19.84375 C 17.378906 -19.164062 17.785156 -18.769531 17.890625 -18.65625 C 17.992188 -18.539062 18.046875 -18.4375 18.046875 -18.34375 C 18.046875 -18.257812 18.015625 -18.171875 17.953125 -18.078125 C 17.742188 -17.816406 16.757812 -16.660156 15 -14.609375 C 13.800781 -13.234375 13.078125 -12.382812 12.828125 -12.0625 C 12.578125 -11.738281 12.453125 -11.503906 12.453125 -11.359375 C 12.453125 -11.265625 12.46875 -11.203125 12.5 -11.171875 C 12.613281 -11.023438 13.59375 -9.882812 15.4375 -7.75 C 17.257812 -5.664062 18.171875 -4.5625 18.171875 -4.4375 C 18.171875 -4.4375 18.160156 -4.40625 18.140625 -4.34375 C 18.128906 -4.289062 17.625 -3.796875 16.625 -2.859375 L 15.09375 -1.40625 L 12.3125 -4.65625 C 11.550781 -5.570312 10.878906 -6.328125 10.296875 -6.921875 C 9.710938 -7.523438 9.390625 -7.828125 9.328125 -7.828125 C 9.179688 -7.828125 8.140625 -6.742188 6.203125 -4.578125 L 3.296875 -1.359375 L 0.21875 -4.484375 L 1.796875 -6.34375 C 2.796875 -7.507812 3.835938 -8.679688 4.921875 -9.859375 L 6.421875 -11.484375 L 3.515625 -14.78125 C 1.578125 -16.957031 0.609375 -18.085938 0.609375 -18.171875 C 0.609375 -18.285156 1.09375 -18.8125 2.0625 -19.75 C 3.03125 -20.6875 3.578125 -21.15625 3.703125 -21.15625 C 3.722656 -21.15625 3.734375 -21.15625 3.734375 -21.15625 C 3.828125 -21.15625 3.914062 -21.082031 4 -20.9375 C 4.09375 -20.769531 4.992188 -19.722656 6.703125 -17.796875 C 8.421875 -15.878906 9.3125 -14.921875 9.375 -14.921875 C 9.425781 -14.941406 10.363281 -16.007812 12.1875 -18.125 Z M 12.1875 -18.125 "/></g></g></g><g fill="#000000" fill-opacity="1"><g transform="translate(226.069767, 42.559273)"><g/></g></g><g fill="#000000" fill-opacity="1"><g transform="translate(239.355051, 42.559273)"><g><path d="M 2.953125 -29.078125 C 4.148438 -29.378906 4.804688 -29.53125 4.921875 -29.53125 C 5.046875 -29.53125 5.441406 -27.722656 6.109375 -24.109375 C 6.609375 -21.265625 7.070312 -18.75 7.5 -16.5625 C 7.925781 -14.375 8.269531 -12.707031 8.53125 -11.5625 C 8.800781 -10.425781 8.945312 -9.859375 8.96875 -9.859375 C 9.0625 -9.941406 9.632812 -11.816406 10.6875 -15.484375 C 11.75 -19.148438 12.515625 -21.910156 12.984375 -23.765625 C 13.484375 -25.691406 13.757812 -26.6875 13.8125 -26.75 C 13.875 -26.8125 14.648438 -26.859375 16.140625 -26.890625 L 18.484375 -26.921875 L 20.328125 -19.9375 C 21.117188 -16.9375 21.878906 -14.03125 22.609375 -11.21875 L 23.140625 -9.421875 L 23.40625 -10.953125 C 23.550781 -11.546875 24.125 -14.378906 25.125 -19.453125 C 26.03125 -23.960938 26.578125 -26.722656 26.765625 -27.734375 C 26.960938 -28.753906 27.101562 -29.320312 27.1875 -29.4375 C 27.1875 -29.4375 27.21875 -29.4375 27.28125 -29.4375 C 27.488281 -29.4375 28.234375 -29.28125 29.515625 -28.96875 C 30.804688 -28.664062 31.5 -28.46875 31.59375 -28.375 C 31.59375 -28.195312 31.035156 -25.472656 29.921875 -20.203125 C 28.222656 -12.160156 27.328125 -7.9375 27.234375 -7.53125 C 26.535156 -4.15625 26.171875 -2.394531 26.140625 -2.25 L 25.953125 -1.546875 L 21.203125 -1.546875 L 19.40625 -7.484375 C 18.226562 -11.347656 17.40625 -14.132812 16.9375 -15.84375 C 16.53125 -17.425781 16.28125 -18.273438 16.1875 -18.390625 C 16.15625 -18.390625 16.015625 -18.035156 15.765625 -17.328125 C 15.523438 -16.628906 15.195312 -15.625 14.78125 -14.3125 C 14.375 -13.007812 13.921875 -11.582031 13.421875 -10.03125 L 10.828125 -1.546875 L 6.078125 -1.546875 L 5.890625 -2.25 C 5.691406 -3.09375 5.144531 -5.632812 4.25 -9.875 C 3.351562 -14.113281 2.613281 -17.71875 2.03125 -20.6875 C 1.113281 -25.113281 0.613281 -27.503906 0.53125 -27.859375 C 0.5 -28.023438 0.484375 -28.15625 0.484375 -28.25 C 0.484375 -28.28125 0.488281 -28.316406 0.5 -28.359375 C 0.519531 -28.398438 0.601562 -28.453125 0.75 -28.515625 C 1.007812 -28.597656 1.742188 -28.785156 2.953125 -29.078125 Z M 2.953125 -29.078125 "/></g></g></g><g fill="#000000" fill-opacity="1"><g transform="translate(271.424508, 42.559273)"><g><path d="M 11.921875 -16.234375 C 11.566406 -16.328125 11.097656 -16.378906 10.515625 -16.390625 C 9.929688 -16.398438 9.429688 -16.363281 9.015625 -16.28125 C 8.171875 -16.070312 7.46875 -15.628906 6.90625 -14.953125 C 6.644531 -14.628906 6.414062 -14.238281 6.21875 -13.78125 C 6.03125 -13.332031 5.984375 -13.050781 6.078125 -12.9375 C 6.128906 -12.875 7.488281 -12.910156 10.15625 -13.046875 C 12.832031 -13.179688 14.195312 -13.273438 14.25 -13.328125 C 14.3125 -13.359375 14.253906 -13.65625 14.078125 -14.21875 C 13.867188 -14.6875 13.570312 -15.109375 13.1875 -15.484375 C 12.8125 -15.867188 12.390625 -16.117188 11.921875 -16.234375 Z M 7.96875 -20.453125 C 10.226562 -20.953125 12.367188 -20.820312 14.390625 -20.0625 C 15.085938 -19.800781 15.8125 -19.296875 16.5625 -18.546875 C 17.3125 -17.796875 17.816406 -17.070312 18.078125 -16.375 C 18.398438 -15.519531 18.617188 -14.460938 18.734375 -13.203125 C 18.859375 -11.941406 18.847656 -10.84375 18.703125 -9.90625 L 18.609375 -9.28125 L 17.109375 -9.203125 C 16.410156 -9.140625 14.34375 -9.019531 10.90625 -8.84375 L 6.15625 -8.671875 L 6.25 -8.234375 C 6.570312 -6.992188 7.453125 -6.15625 8.890625 -5.71875 C 9.890625 -5.425781 10.929688 -5.351562 12.015625 -5.5 C 13.097656 -5.644531 14.179688 -6.007812 15.265625 -6.59375 L 16.59375 -7.296875 L 17.59375 -5.546875 C 18.007812 -4.835938 18.273438 -4.34375 18.390625 -4.0625 C 18.503906 -3.789062 18.519531 -3.609375 18.4375 -3.515625 C 18.257812 -3.316406 17.757812 -3.003906 16.9375 -2.578125 C 16.113281 -2.148438 15.367188 -1.816406 14.703125 -1.578125 C 14.078125 -1.378906 13.546875 -1.253906 13.109375 -1.203125 C 12.671875 -1.160156 11.925781 -1.140625 10.875 -1.140625 C 9.195312 -1.140625 8.066406 -1.210938 7.484375 -1.359375 C 5.484375 -1.921875 3.953125 -3.035156 2.890625 -4.703125 C 1.835938 -6.378906 1.3125 -8.476562 1.3125 -11 C 1.3125 -13.613281 1.890625 -15.722656 3.046875 -17.328125 C 4.210938 -18.941406 5.851562 -19.984375 7.96875 -20.453125 Z M 7.96875 -20.453125 "/></g></g></g><g fill="#000000" fill-opacity="1"><g transform="translate(291.352412, 42.559273)"><g><path d="M 4.265625 -29.828125 C 5.265625 -29.859375 6.015625 -29.90625 6.515625 -29.96875 C 6.546875 -29.96875 6.5625 -29.96875 6.5625 -29.96875 C 6.675781 -29.96875 6.757812 -29.863281 6.8125 -29.65625 C 6.875 -29.445312 6.921875 -28.890625 6.953125 -27.984375 C 7.035156 -26.691406 7.078125 -25.003906 7.078125 -22.921875 C 7.078125 -21.429688 7.09375 -20.523438 7.125 -20.203125 C 7.125 -20.203125 7.210938 -20.226562 7.390625 -20.28125 L 7.4375 -20.328125 C 7.46875 -20.328125 7.507812 -20.34375 7.5625 -20.375 L 7.609375 -20.375 C 7.753906 -20.425781 7.945312 -20.5 8.1875 -20.59375 C 8.914062 -20.851562 9.640625 -21 10.359375 -21.03125 C 11.078125 -21.0625 11.554688 -21.078125 11.796875 -21.078125 C 12.640625 -21.078125 13.382812 -21.003906 14.03125 -20.859375 C 16.082031 -20.328125 17.703125 -19.238281 18.890625 -17.59375 C 20.085938 -15.957031 20.6875 -13.921875 20.6875 -11.484375 C 20.6875 -7.492188 19.289062 -4.617188 16.5 -2.859375 C 15.46875 -2.210938 14.503906 -1.84375 13.609375 -1.75 C 12.722656 -1.664062 12.117188 -1.625 11.796875 -1.625 C 10.703125 -1.625 9.644531 -1.800781 8.625 -2.15625 C 8.476562 -2.21875 8.300781 -2.273438 8.09375 -2.328125 C 7.882812 -2.390625 7.726562 -2.4375 7.625 -2.46875 C 7.53125 -2.5 7.484375 -2.515625 7.484375 -2.515625 C 7.453125 -2.515625 7.4375 -2.484375 7.4375 -2.421875 C 7.4375 -2.390625 7.453125 -2.316406 7.484375 -2.203125 C 7.484375 -2.140625 7.46875 -2.085938 7.4375 -2.046875 C 7.40625 -2.003906 7.304688 -1.972656 7.140625 -1.953125 C 6.984375 -1.941406 6.769531 -1.921875 6.5 -1.890625 C 6.238281 -1.859375 5.847656 -1.84375 5.328125 -1.84375 L 3.171875 -1.765625 L 3.078125 -3.21875 C 3.015625 -4.351562 2.910156 -6.769531 2.765625 -10.46875 C 2.617188 -14.164062 2.535156 -17.71875 2.515625 -21.125 L 2.421875 -29.78125 Z M 13.03125 -16.109375 C 12.46875 -16.285156 11.863281 -16.375 11.21875 -16.375 C 10.957031 -16.375 10.503906 -16.332031 9.859375 -16.25 C 9.210938 -16.175781 8.566406 -15.9375 7.921875 -15.53125 L 7.34375 -15.1875 L 7.296875 -11.75 C 7.296875 -11.3125 7.296875 -10.898438 7.296875 -10.515625 C 7.296875 -9.015625 7.34375 -8.164062 7.4375 -7.96875 C 7.46875 -7.875 7.613281 -7.738281 7.875 -7.5625 C 8.132812 -7.382812 8.425781 -7.210938 8.75 -7.046875 C 9.28125 -6.773438 9.691406 -6.601562 9.984375 -6.53125 C 10.273438 -6.457031 10.804688 -6.421875 11.578125 -6.421875 C 12.453125 -6.421875 13.128906 -6.507812 13.609375 -6.6875 C 14.097656 -6.863281 14.535156 -7.203125 14.921875 -7.703125 C 15.328125 -8.171875 15.59375 -8.628906 15.71875 -9.078125 C 15.851562 -9.535156 15.921875 -10.28125 15.921875 -11.3125 C 15.921875 -12.101562 15.890625 -12.664062 15.828125 -13 C 15.773438 -13.34375 15.675781 -13.660156 15.53125 -13.953125 C 15.269531 -14.453125 14.914062 -14.898438 14.46875 -15.296875 C 14.03125 -15.691406 13.550781 -15.960938 13.03125 -16.109375 Z M 13.03125 -16.109375 "/></g></g></g><g fill="#000000" fill-opacity="1"><g transform="translate(313.347903, 42.559273)"><g><path d="M 6.8125 -20.765625 C 7.40625 -20.859375 8.066406 -20.910156 8.796875 -20.921875 C 9.535156 -20.929688 9.988281 -20.9375 10.15625 -20.9375 C 11.25 -20.9375 12.25 -20.894531 13.15625 -20.8125 L 14.734375 -20.71875 L 14.65625 -17.03125 L 10.953125 -16.984375 C 9.191406 -16.984375 8.101562 -16.953125 7.6875 -16.890625 C 7.28125 -16.835938 6.960938 -16.722656 6.734375 -16.546875 C 6.378906 -16.273438 6.203125 -15.9375 6.203125 -15.53125 C 6.203125 -15.09375 6.390625 -14.765625 6.765625 -14.546875 C 7.148438 -14.328125 8.019531 -14.023438 9.375 -13.640625 C 10.664062 -13.285156 11.640625 -12.929688 12.296875 -12.578125 C 12.953125 -12.234375 13.515625 -11.828125 13.984375 -11.359375 C 14.546875 -10.765625 14.9375 -10.179688 15.15625 -9.609375 C 15.375 -9.035156 15.484375 -8.296875 15.484375 -7.390625 C 15.453125 -5.984375 15.132812 -4.816406 14.53125 -3.890625 C 13.9375 -2.972656 12.992188 -2.265625 11.703125 -1.765625 C 11.265625 -1.617188 10.816406 -1.519531 10.359375 -1.46875 C 9.910156 -1.425781 9.066406 -1.40625 7.828125 -1.40625 C 6.660156 -1.40625 5.789062 -1.441406 5.21875 -1.515625 C 4.644531 -1.585938 3.960938 -1.710938 3.171875 -1.890625 C 1.929688 -2.148438 1.3125 -2.34375 1.3125 -2.46875 C 1.3125 -2.550781 1.421875 -3.175781 1.640625 -4.34375 C 1.867188 -5.519531 2 -6.140625 2.03125 -6.203125 C 2.03125 -6.203125 2.039062 -6.203125 2.0625 -6.203125 C 2.1875 -6.203125 2.703125 -6.085938 3.609375 -5.859375 C 5.398438 -5.503906 6.867188 -5.328125 8.015625 -5.328125 C 8.359375 -5.328125 8.921875 -5.367188 9.703125 -5.453125 C 10.484375 -5.546875 10.898438 -6.03125 10.953125 -6.90625 C 10.953125 -7 10.953125 -7.070312 10.953125 -7.125 C 10.953125 -7.65625 10.738281 -8.066406 10.3125 -8.359375 C 9.894531 -8.648438 8.96875 -8.988281 7.53125 -9.375 C 4.882812 -10.070312 3.222656 -10.90625 2.546875 -11.875 C 2.046875 -12.550781 1.765625 -13.195312 1.703125 -13.8125 C 1.648438 -14.425781 1.625 -14.835938 1.625 -15.046875 C 1.625 -15.867188 1.800781 -16.660156 2.15625 -17.421875 C 2.507812 -18.242188 3.109375 -18.960938 3.953125 -19.578125 C 4.804688 -20.191406 5.757812 -20.585938 6.8125 -20.765625 Z M 6.8125 -20.765625 "/></g></g></g><g fill="#000000" fill-opacity="1"><g transform="translate(330.152483, 42.559273)"><g><path d="M 2.46875 -18.78125 L 2.546875 -20.90625 L 6.90625 -20.90625 L 6.90625 -13.8125 C 6.90625 -9.0625 6.863281 -5.835938 6.78125 -4.140625 L 6.6875 -1.546875 L 2.203125 -1.546875 L 2.28125 -9.109375 C 2.34375 -14.210938 2.40625 -17.4375 2.46875 -18.78125 Z M 2.421875 -27.5 L 2.421875 -29.75 L 7.046875 -29.75 L 7.046875 -25.25 L 2.421875 -25.25 Z M 2.421875 -27.5 "/></g></g></g><g fill="#000000" fill-opacity="1"><g transform="translate(339.390603, 42.559273)"><g><path d="M 0.484375 -15.96875 L 0.484375 -20.59375 L 4.796875 -20.59375 L 4.796875 -26.140625 L 6.375 -26.046875 C 7.519531 -25.984375 8.3125 -25.941406 8.75 -25.921875 L 9.59375 -25.921875 L 9.59375 -20.59375 L 15.140625 -20.59375 L 15.046875 -19.453125 C 14.960938 -18.679688 14.921875 -17.898438 14.921875 -17.109375 L 14.921875 -15.96875 L 9.421875 -15.96875 L 9.421875 -11.53125 C 9.421875 -9.300781 9.429688 -7.976562 9.453125 -7.5625 C 9.484375 -7.15625 9.601562 -6.832031 9.8125 -6.59375 C 10.070312 -6.300781 10.414062 -6.109375 10.84375 -6.015625 C 11.269531 -5.929688 11.75 -5.890625 12.28125 -5.890625 C 12.601562 -5.890625 12.9375 -5.90625 13.28125 -5.9375 L 14.875 -6.03125 L 14.953125 -4.578125 C 15.046875 -3.671875 15.09375 -2.921875 15.09375 -2.328125 L 15.09375 -1.578125 L 13.59375 -1.453125 C 13.039062 -1.390625 12.457031 -1.359375 11.84375 -1.359375 C 11.3125 -1.359375 10.578125 -1.390625 9.640625 -1.453125 C 8.703125 -1.515625 8 -1.617188 7.53125 -1.765625 C 6.96875 -1.960938 6.492188 -2.269531 6.109375 -2.6875 C 5.847656 -2.914062 5.660156 -3.132812 5.546875 -3.34375 C 5.429688 -3.550781 5.3125 -3.789062 5.1875 -4.0625 C 5.070312 -4.34375 4.992188 -4.773438 4.953125 -5.359375 C 4.910156 -5.953125 4.878906 -6.597656 4.859375 -7.296875 C 4.847656 -8.003906 4.84375 -9.046875 4.84375 -10.421875 L 4.75 -15.96875 Z M 0.484375 -15.96875 "/></g></g></g><g fill="#000000" fill-opacity="1"><g transform="translate(355.05142, 42.559273)"><g><path d="M 11.921875 -16.234375 C 11.566406 -16.328125 11.097656 -16.378906 10.515625 -16.390625 C 9.929688 -16.398438 9.429688 -16.363281 9.015625 -16.28125 C 8.171875 -16.070312 7.46875 -15.628906 6.90625 -14.953125 C 6.644531 -14.628906 6.414062 -14.238281 6.21875 -13.78125 C 6.03125 -13.332031 5.984375 -13.050781 6.078125 -12.9375 C 6.128906 -12.875 7.488281 -12.910156 10.15625 -13.046875 C 12.832031 -13.179688 14.195312 -13.273438 14.25 -13.328125 C 14.3125 -13.359375 14.253906 -13.65625 14.078125 -14.21875 C 13.867188 -14.6875 13.570312 -15.109375 13.1875 -15.484375 C 12.8125 -15.867188 12.390625 -16.117188 11.921875 -16.234375 Z M 7.96875 -20.453125 C 10.226562 -20.953125 12.367188 -20.820312 14.390625 -20.0625 C 15.085938 -19.800781 15.8125 -19.296875 16.5625 -18.546875 C 17.3125 -17.796875 17.816406 -17.070312 18.078125 -16.375 C 18.398438 -15.519531 18.617188 -14.460938 18.734375 -13.203125 C 18.859375 -11.941406 18.847656 -10.84375 18.703125 -9.90625 L 18.609375 -9.28125 L 17.109375 -9.203125 C 16.410156 -9.140625 14.34375 -9.019531 10.90625 -8.84375 L 6.15625 -8.671875 L 6.25 -8.234375 C 6.570312 -6.992188 7.453125 -6.15625 8.890625 -5.71875 C 9.890625 -5.425781 10.929688 -5.351562 12.015625 -5.5 C 13.097656 -5.644531 14.179688 -6.007812 15.265625 -6.59375 L 16.59375 -7.296875 L 17.59375 -5.546875 C 18.007812 -4.835938 18.273438 -4.34375 18.390625 -4.0625 C 18.503906 -3.789062 18.519531 -3.609375 18.4375 -3.515625 C 18.257812 -3.316406 17.757812 -3.003906 16.9375 -2.578125 C 16.113281 -2.148438 15.367188 -1.816406 14.703125 -1.578125 C 14.078125 -1.378906 13.546875 -1.253906 13.109375 -1.203125 C 12.671875 -1.160156 11.925781 -1.140625 10.875 -1.140625 C 9.195312 -1.140625 8.066406 -1.210938 7.484375 -1.359375 C 5.484375 -1.921875 3.953125 -3.035156 2.890625 -4.703125 C 1.835938 -6.378906 1.3125 -8.476562 1.3125 -11 C 1.3125 -13.613281 1.890625 -15.722656 3.046875 -17.328125 C 4.210938 -18.941406 5.851562 -19.984375 7.96875 -20.453125 Z M 7.96875 -20.453125 "/></g></g></g></svg>